<svg xmlns="http://www.w3.org/2000/svg" viewBox="0 0 74.5 73.03"><defs><style>.cls-1{fill:#d1ddeb;}.cls-2{fill:#fff;}</style></defs><title>Recurso 241</title><g id="Capa_2" data-name="Capa 2"><g id="Capa_1-2" data-name="Capa 1"><rect class="cls-1" width="74.5" height="73.03" rx="16.46"/><path class="cls-2" d="M63.55,37.05,57.33,32V22.34A2.36,2.36,0,0,0,55,20H47.88a2.37,2.37,0,0,0-2.36,2.33l-8-6.52a2.35,2.35,0,0,0-3.07.07L10.87,37.12a2.36,2.36,0,0,0,1.58,4.12h4.72V55.41a2.37,2.37,0,0,0,2.36,2.37H55a2.37,2.37,0,0,0,2.36-2.37V41.24h4.72a2.36,2.36,0,0,0,1.5-4.19ZM50.24,24.71H52.6V28.1l-2.36-1.94ZM33.71,53.05V43.6H26.62v9.45H21.89V41.24H52.6V53.05ZM18.6,36.52,36.14,20.73,55.43,36.52Z"/><rect class="cls-2" x="38.43" y="43.6" width="9.45" height="7.09"/></g></g></svg>