<svg id="expnaded" xmlns="http://www.w3.org/2000/svg" viewBox="0 0 96 96"><path d="M31.8,92.85h-.1a1,1,0,0,1-.89-1.09l.71-6.89a5.21,5.21,0,0,0-1.46-4.19L21,71.38a24,24,0,0,1-4.58-6.6L10.64,52.53a22.41,22.41,0,0,1-2.11-9.46V27.43a3.91,3.91,0,0,1,7.72-.86l3.48,15.56a1,1,0,0,1-1.95.44L14.3,27a1.91,1.91,0,0,0-3.77.42V43.07a20.29,20.29,0,0,0,1.92,8.6l5.77,12.26A22,22,0,0,0,22.42,70l9.07,9.3a7.22,7.22,0,0,1,2,5.79L32.8,92A1,1,0,0,1,31.8,92.85Z"/><path d="M48,92.85a1,1,0,0,1-1-1V74.78a18.35,18.35,0,0,0-3.25-10.46l-1.27-1.84a24,24,0,0,0-10.74-8.65,9.72,9.72,0,0,1-3.27-2.18L20.91,44a2.27,2.27,0,0,0-3.38,3L33.59,66.92a1,1,0,0,1-.15,1.41,1,1,0,0,1-1.4-.15L16,48.25a4.24,4.24,0,0,1,.55-5.92,4.29,4.29,0,0,1,5.82.24l7.56,7.67A7.62,7.62,0,0,0,32.5,52a26.09,26.09,0,0,1,11.63,9.36l1.26,1.84A20.38,20.38,0,0,1,49,74.78V91.85A1,1,0,0,1,48,92.85Z"/><path d="M64.2,94a1,1,0,0,1-1-.9l-.71-6.88a7.22,7.22,0,0,1,2-5.79l9.07-9.3a22.09,22.09,0,0,0,4.2-6l5.77-12.25a20.37,20.37,0,0,0,1.92-8.61V28.58a1.91,1.91,0,0,0-3.77-.42L78.22,43.72a1,1,0,1,1-2-.44l3.48-15.56a3.91,3.91,0,0,1,7.72.86V44.22a22.41,22.41,0,0,1-2.11,9.46L79.59,65.93A24,24,0,0,1,75,72.53l-9.07,9.29A5.22,5.22,0,0,0,64.48,86l.71,6.89A1,1,0,0,1,64.3,94Z"/><path d="M48,94a1,1,0,0,1-1-1V75.93a20.38,20.38,0,0,1,3.61-11.6l1.26-1.84A26.09,26.09,0,0,1,63.5,53.13a7.62,7.62,0,0,0,2.6-1.74l7.56-7.66a4.29,4.29,0,0,1,5.82-.25A4.24,4.24,0,0,1,80,49.4L64,69.33a1,1,0,0,1-1.4.15,1,1,0,0,1-.15-1.41L78.47,48.15a2.27,2.27,0,0,0-3.38-3L67.53,52.8A9.9,9.9,0,0,1,64.26,55a23.93,23.93,0,0,0-10.74,8.64l-1.27,1.84A18.43,18.43,0,0,0,49,75.93V93A1,1,0,0,1,48,94Z"/><path d="M62,55.9a1,1,0,0,1-.91-.58,14.47,14.47,0,0,0-25.84-.85,1,1,0,1,1-1.75-.95,16.46,16.46,0,0,1,29.41,1,1,1,0,0,1-.49,1.33A1.06,1.06,0,0,1,62,55.9Z"/><path d="M47.14,46.92a1,1,0,0,1-1-1A27.11,27.11,0,0,1,47,38.53a25.14,25.14,0,0,0,.83-6.91A25.17,25.17,0,0,0,47,24.7a27.17,27.17,0,0,1-.89-7.39A27.11,27.11,0,0,1,47,9.92,25.17,25.17,0,0,0,47.86,3a1,1,0,0,1,2,0A27.11,27.11,0,0,1,49,10.39a25.17,25.17,0,0,0-.83,6.92A25.17,25.17,0,0,0,49,24.23a27.05,27.05,0,0,1,.89,7.39A27,27,0,0,1,49,39a25.17,25.17,0,0,0-.83,6.92A1,1,0,0,1,47.14,46.92Z"/><path d="M48.7,29a1,1,0,0,1-.51-.14l0,0a18.05,18.05,0,0,0-8.72-2.66c-17-.49-19.9-16-19.93-16.17a1,1,0,0,1,1.38-1.09c1.24.53,4.83,1.86,6.52,1.67C47.25,9.48,49.67,27.72,49.69,27.9a1,1,0,0,1-.44,1A1,1,0,0,1,48.7,29ZM22,11.49c1.24,3.83,5.38,12.36,17.53,12.71a19.66,19.66,0,0,1,7.81,1.93C46.1,21.72,41.84,11.79,27.56,12.6A15.13,15.13,0,0,1,22,11.49Z"/><path d="M48.67,29a1,1,0,0,1-.77-.36C45.69,26,39.05,19,35,18.77a1,1,0,0,1-.93-1.07,1,1,0,0,1,1.07-.93c5.75.39,14,10.17,14.32,10.59a1,1,0,0,1-.13,1.41A1,1,0,0,1,48.67,29Z"/><path d="M48.39,38.05a1,1,0,0,1-.54-.15,1,1,0,0,1-.47-.94c0-.23,2.93-22.63,27.22-21.34,2.2.23,6.69-1.46,8.24-2.13a1,1,0,0,1,1.38,1.09c0,.19-3.48,19.25-24.37,20A22.56,22.56,0,0,0,48.93,37.9,1,1,0,0,1,48.39,38.05ZM72.56,17.56c-16.9,0-21.6,12.57-22.81,17.6a24.14,24.14,0,0,1,10-2.63c15.73-.52,20.68-11.94,22-16.48-2,.76-5.28,1.77-7.37,1.56C73.8,17.58,73.17,17.56,72.56,17.56Z"/><path d="M48.41,38.05a1,1,0,0,1-.77-1.64c.43-.51,10.49-12.6,17.52-13.11a1,1,0,1,1,.14,2c-5.12.38-13.37,9.07-16.11,12.4A1,1,0,0,1,48.41,38.05Z"/></svg>